<svg width="646" height="364" viewBox="0 0 646 364" fill="none" xmlns="http://www.w3.org/2000/svg">
<path opacity="0.897306" d="M9.80273 15C9.80273 12.2386 12.0413 10 14.8027 10H630.803C633.564 10 635.803 12.2386 635.803 15V349C635.803 351.761 633.564 354 630.803 354H14.8027C12.0413 354 9.80273 351.761 9.80273 349V15Z" fill="#EDEDED"/>
<g opacity="0.153039">
<mask id="mask0_537_2209" style="mask-type:alpha" maskUnits="userSpaceOnUse" x="9" y="10" width="627" height="344">
<path d="M9.80273 15C9.80273 12.2386 12.0413 10 14.8027 10H630.803C633.564 10 635.803 12.2386 635.803 15V349C635.803 351.761 633.564 354 630.803 354H14.8027C12.0413 354 9.80273 351.761 9.80273 349V15Z" fill="#4C47C4"/>
</mask>
<g mask="url(#mask0_537_2209)">
<g opacity="0.583938">
<path d="M609.434 302.344C598.093 303.043 589.137 309.666 585.51 320.042C584.791 322.096 583.977 325.459 583.977 329.38V329.502V354.189H593.857V331.196C593.857 328.031 594.087 327.198 594.269 326.405C596.027 318.756 601.888 313.401 609.384 312.694C610.238 312.613 635.811 312.694 635.811 312.694V302.508C635.811 302.508 610.093 302.305 609.434 302.344Z" fill="#4C47C4"/>
<path d="M505.766 302.344C494.425 303.043 485.469 309.666 481.843 320.042C481.123 322.096 480.309 325.459 480.309 329.38V329.502V354.189H490.189V331.196C490.189 328.031 490.419 327.198 490.601 326.405C492.359 318.756 498.22 313.401 505.716 312.694C506.57 312.613 532.143 312.694 532.143 312.694V302.508C532.143 302.508 506.425 302.305 505.766 302.344Z" fill="#4C47C4"/>
<path d="M609.434 198.644C598.093 199.343 589.137 205.966 585.51 216.342C584.791 218.395 583.977 221.758 583.977 225.68V225.801V250.489H593.857V227.496C593.857 224.331 594.087 223.498 594.269 222.705C596.027 215.056 601.888 209.701 609.384 208.994C610.238 208.913 635.811 208.994 635.811 208.994V198.808C635.811 198.808 610.093 198.605 609.434 198.644Z" fill="#4C47C4"/>
<path d="M557.602 250.494C546.261 251.193 537.305 257.816 533.678 268.192C532.959 270.246 532.145 273.609 532.145 277.53V277.652V302.339H542.025V279.346C542.025 276.181 542.255 275.348 542.437 274.555C544.194 266.906 550.056 261.551 557.552 260.844C558.406 260.763 583.979 260.844 583.979 260.844V250.658C583.979 250.658 558.261 250.455 557.602 250.494Z" fill="#4C47C4"/>
<path d="M568.51 312.515C579.851 311.816 588.807 305.193 592.434 294.817C593.153 292.764 593.968 289.401 593.968 285.479V285.358V260.67H584.087V283.663C584.087 286.828 583.858 287.661 583.676 288.454C581.918 296.103 576.056 301.458 568.561 302.165C567.707 302.246 542.133 302.165 542.133 302.165V312.351C542.133 312.351 567.852 312.554 568.51 312.515Z" fill="#4C47C4"/>
<path d="M620.344 364.365C631.685 363.666 640.641 357.043 644.268 346.667C644.987 344.614 645.802 341.251 645.802 337.329V337.208V312.52H635.921V335.513C635.921 338.678 635.692 339.511 635.51 340.304C633.752 347.953 627.89 353.309 620.395 354.015C619.541 354.097 593.967 354.015 593.967 354.015V364.201C593.967 364.201 619.686 364.404 620.344 364.365Z" fill="#4C47C4"/>
<path d="M620.344 260.665C631.685 259.967 640.641 253.343 644.268 242.967C644.987 240.914 645.802 237.551 645.802 233.629V233.508V208.82H635.921V231.813C635.921 234.979 635.692 235.811 635.51 236.605C633.752 244.253 627.89 249.609 620.395 250.315C619.541 250.397 593.967 250.315 593.967 250.315V260.502C593.967 260.502 619.686 260.705 620.344 260.665Z" fill="#4C47C4"/>
<path d="M516.675 364.365C528.015 363.666 536.971 357.043 540.598 346.667C541.317 344.614 542.132 341.251 542.132 337.329V337.208V312.52H532.251V335.513C532.251 338.678 532.022 339.511 531.84 340.304C530.082 347.953 524.22 353.309 516.725 354.015C515.871 354.097 490.297 354.015 490.297 354.015V364.201C490.297 364.201 516.016 364.404 516.675 364.365Z" fill="#4C47C4"/>
</g>
<g opacity="0.583938">
<path d="M191.483 10.0372C202.824 9.33878 211.78 2.71553 215.406 -7.66082C216.126 -9.71395 216.94 -13.077 216.94 -16.9987V-17.12V-41.8076H207.059V-18.8147C207.059 -15.6493 206.83 -14.8165 206.648 -14.0231C204.89 -6.37465 199.029 -1.01911 191.533 -0.312771C190.679 -0.231064 165.105 -0.312771 165.105 -0.312771V9.87381C165.105 9.87381 190.824 10.0768 191.483 10.0372Z" fill="#4C47C4"/>
<path d="M87.8151 113.737C99.1561 113.039 108.112 106.416 111.738 96.0394C112.458 93.9862 113.272 90.6232 113.272 86.7015V86.5802V61.8926H103.392V84.8855C103.392 88.0509 103.162 88.8837 102.98 89.677C101.222 97.3255 95.3608 102.681 87.8652 103.387C87.0113 103.469 61.4375 103.387 61.4375 103.387V113.574C61.4375 113.574 87.1562 113.777 87.8151 113.737Z" fill="#4C47C4"/>
<path d="M87.8151 10.0372C99.1561 9.33878 108.112 2.71553 111.738 -7.66082C112.458 -9.71395 113.272 -13.077 113.272 -16.9987V-17.12V-41.8076H103.392V-18.8147C103.392 -15.6493 103.162 -14.8165 102.98 -14.0231C101.222 -6.37465 95.3608 -1.01911 87.8652 -0.312771C87.0113 -0.231064 61.4375 -0.312771 61.4375 -0.312771V9.87381C61.4375 9.87381 87.1562 10.0768 87.8151 10.0372Z" fill="#4C47C4"/>
<path d="M35.9792 165.587C47.3202 164.889 56.2759 158.265 59.9025 147.889C60.622 145.836 61.4364 142.473 61.4364 138.551V138.43V113.742H51.5556V136.735C51.5556 139.9 51.3263 140.733 51.1444 141.527C49.3865 149.175 43.5249 154.531 36.0293 155.237C35.1753 155.319 9.60156 155.237 9.60156 155.237V165.424C9.60156 165.424 35.3203 165.627 35.9792 165.587Z" fill="#4C47C4"/>
<path d="M139.649 61.8873C150.99 61.1889 159.946 54.5656 163.572 44.1893C164.292 42.1362 165.106 38.7731 165.106 34.8514V34.7301V10.0425H155.225V33.0354C155.225 36.2008 154.996 37.0336 154.814 37.827C153.056 45.4754 147.195 50.831 139.699 51.5373C138.845 51.619 113.271 51.5373 113.271 51.5373V61.7239C113.271 61.7239 138.99 61.9269 139.649 61.8873Z" fill="#4C47C4"/>
<path d="M35.9792 61.8873C47.3202 61.1889 56.2759 54.5656 59.9025 44.1893C60.622 42.1362 61.4364 38.7731 61.4364 34.8514V34.7301V10.0425H51.5556V33.0354C51.5556 36.2008 51.3263 37.0336 51.1444 37.827C49.3865 45.4754 43.5249 50.831 36.0293 51.5373C35.1753 51.619 9.60156 51.5373 9.60156 51.5373V61.7239C9.60156 61.7239 35.3203 61.9269 35.9792 61.8873Z" fill="#4C47C4"/>
<path d="M25.0686 103.567C13.7276 104.265 4.77183 110.888 1.14524 121.265C0.425724 123.318 -0.388672 126.681 -0.388672 130.603V130.724V155.411H9.49218V132.419C9.49218 129.253 9.72148 128.42 9.90334 127.627C11.6613 119.978 17.5228 114.623 25.0185 113.917C25.8724 113.835 51.4462 113.917 51.4462 113.917V103.73C51.4462 103.73 25.7275 103.527 25.0686 103.567Z" fill="#4C47C4"/>
<path d="M128.738 -0.133563C117.398 0.564866 108.442 7.18813 104.815 17.5645C104.096 19.6176 103.281 22.9806 103.281 26.9024V27.0236V51.7113H113.162V28.7183C113.162 25.553 113.391 24.7201 113.573 23.9268C115.331 16.2783 121.193 10.9228 128.688 10.2164C129.542 10.1347 155.116 10.2164 155.116 10.2164V0.0298434C155.116 0.0298434 129.397 -0.173102 128.738 -0.133563Z" fill="#4C47C4"/>
<path d="M25.0686 -0.133563C13.7276 0.564866 4.77183 7.18813 1.14524 17.5645C0.425724 19.6176 -0.388672 22.9806 -0.388672 26.9024V27.0236V51.7113H9.49218V28.7183C9.49218 25.553 9.72148 24.7201 9.90334 23.9268C11.6613 16.2783 17.5228 10.9228 25.0185 10.2164C25.8724 10.1347 51.4462 10.2164 51.4462 10.2164V0.0298434C51.4462 0.0298434 25.7275 -0.173102 25.0686 -0.133563Z" fill="#4C47C4"/>
<path d="M76.9026 51.7165C65.5616 52.415 56.6058 59.0382 52.9792 69.4146C52.2597 71.4677 51.4453 74.8307 51.4453 78.7525V78.8737V103.561H61.3262V80.5684C61.3262 77.4031 61.5555 76.5702 61.7373 75.7769C63.4953 68.1284 69.3568 62.7729 76.8525 62.0665C77.7064 61.9848 103.28 62.0665 103.28 62.0665V51.8799C103.28 51.8799 77.5614 51.677 76.9026 51.7165Z" fill="#4C47C4"/>
</g>
</g>
</g>
<path d="M25.3877 0.00509434C14.0777 0.701616 5.14641 7.30674 1.52973 17.6547C0.812176 19.7022 0 23.056 0 26.967L0 27.0879L0 51.708H9.85388V28.778C9.85388 25.6213 10.0826 24.7907 10.2639 23.9996C12.0171 16.372 17.8626 11.0312 25.3378 10.3268C26.1894 10.2453 51.6934 10.3268 51.6934 10.3268V0.168054C51.6934 0.168054 26.0448 -0.0343344 25.3877 0.00509434Z" fill="#30299A"/>
<path d="M620.306 363.703C631.616 363.006 640.547 356.401 644.164 346.053C644.881 344.006 645.693 340.652 645.693 336.741V336.62V312H635.839V334.93C635.839 338.087 635.611 338.917 635.429 339.708C633.676 347.336 627.831 352.677 620.356 353.381C619.504 353.463 594 353.381 594 353.381V363.54C594 363.54 619.649 363.742 620.306 363.703Z" fill="#30299A"/>
</svg>
