<svg width="1366" height="737" viewBox="0 0 1366 737" fill="none" xmlns="http://www.w3.org/2000/svg">
<g opacity="0.347976">
<mask id="mask0_2384_5515" style="mask-type:alpha" maskUnits="userSpaceOnUse" x="0" y="0" width="1366" height="767">
<rect width="1366" height="766.988" transform="matrix(1 0 0 -1 0 766.988)" fill="#30299A"/>
</mask>
<g mask="url(#mask0_2384_5515)">
<g opacity="0.148585">
<path d="M872.613 103.266C861.273 102.568 852.317 95.9447 848.69 85.5683C847.971 83.5152 847.156 80.1522 847.156 76.2304V76.1092V51.4216H857.037V74.4145C857.037 77.5799 857.266 78.4127 857.448 79.206C859.206 86.8545 865.068 92.2101 872.563 92.9164C873.417 92.9981 898.991 92.9164 898.991 92.9164V103.103C898.991 103.103 873.272 103.306 872.613 103.266Z" fill="#4C47C4"/>
<path d="M1079.95 206.967C1068.61 206.268 1059.65 199.645 1056.03 189.269C1055.31 187.215 1054.49 183.852 1054.49 179.931V179.809V155.122H1064.37V178.115C1064.37 181.28 1064.6 182.113 1064.79 182.906C1066.54 190.555 1072.41 195.91 1079.9 196.617C1080.76 196.698 1106.33 196.617 1106.33 196.617V206.803C1106.33 206.803 1080.61 207.006 1079.95 206.967Z" fill="#4C47C4"/>
<path d="M1079.95 103.266C1068.61 102.568 1059.65 95.9447 1056.03 85.5683C1055.31 83.5152 1054.49 80.1522 1054.49 76.2304V76.1092V51.4216H1064.37V74.4145C1064.37 77.5799 1064.6 78.4127 1064.79 79.206C1066.54 86.8545 1072.41 92.2101 1079.9 92.9164C1080.76 92.9981 1106.33 92.9164 1106.33 92.9164V103.103C1106.33 103.103 1080.61 103.306 1079.95 103.266Z" fill="#4C47C4"/>
<path d="M976.283 206.966C964.942 206.268 955.987 199.644 952.36 189.268C951.641 187.215 950.826 183.852 950.826 179.93V179.809V155.121H960.707V178.114C960.707 181.28 960.936 182.112 961.118 182.906C962.876 190.554 968.738 195.91 976.233 196.616C977.087 196.698 1002.66 196.616 1002.66 196.616V206.803C1002.66 206.803 976.942 207.006 976.283 206.966Z" fill="#4C47C4"/>
<path d="M976.283 103.266C964.942 102.568 955.987 95.9447 952.36 85.5683C951.641 83.5152 950.826 80.1522 950.826 76.2304V76.1092V51.4216H960.707V74.4145C960.707 77.5799 960.936 78.4127 961.118 79.206C962.876 86.8545 968.738 92.2101 976.233 92.9164C977.087 92.9981 1002.66 92.9164 1002.66 92.9164V103.103C1002.66 103.103 976.942 103.306 976.283 103.266Z" fill="#4C47C4"/>
<path d="M1079.95 310.666C1068.61 309.967 1059.65 303.344 1056.03 292.968C1055.31 290.915 1054.49 287.552 1054.49 283.63V283.509V258.821H1064.37V281.814C1064.37 284.979 1064.6 285.812 1064.79 286.605C1066.54 294.254 1072.41 299.609 1079.9 300.316C1080.76 300.398 1106.33 300.316 1106.33 300.316V310.502C1106.33 310.502 1080.61 310.705 1079.95 310.666Z" fill="#4C47C4"/>
<path d="M820.778 51.4163C809.437 50.7178 800.481 44.0946 796.854 33.7182C796.135 31.6651 795.32 28.3021 795.32 24.3803V24.2591V-0.428539H805.201V22.5644C805.201 25.7298 805.43 26.5626 805.612 27.3559C807.37 35.0044 813.232 40.36 820.727 41.0663C821.581 41.148 847.155 41.0663 847.155 41.0663V51.2529C847.155 51.2529 821.436 51.4558 820.778 51.4163Z" fill="#4C47C4"/>
<path d="M1028.12 155.116C1016.78 154.418 1007.82 147.795 1004.2 137.418C1003.48 135.365 1002.66 132.002 1002.66 128.081V127.959V103.272H1012.54V126.265C1012.54 129.43 1012.77 130.263 1012.95 131.056C1014.71 138.705 1020.57 144.06 1028.07 144.766C1028.92 144.848 1054.5 144.766 1054.5 144.766V154.953C1054.5 154.953 1028.78 155.156 1028.12 155.116Z" fill="#4C47C4"/>
<path d="M1028.12 51.4163C1016.78 50.7178 1007.82 44.0946 1004.2 33.7182C1003.48 31.6651 1002.66 28.3021 1002.66 24.3803V24.2591V-0.428539H1012.54V22.5644C1012.54 25.7298 1012.77 26.5626 1012.95 27.3559C1014.71 35.0044 1020.57 40.36 1028.07 41.0663C1028.92 41.148 1054.5 41.0663 1054.5 41.0663V51.2529C1054.5 51.2529 1028.78 51.4558 1028.12 51.4163Z" fill="#4C47C4"/>
<path d="M924.447 155.116C913.106 154.418 904.151 147.795 900.524 137.418C899.805 135.365 898.99 132.002 898.99 128.081V127.959V103.272H908.871V126.265C908.871 129.43 909.1 130.263 909.282 131.056C911.04 138.705 916.902 144.06 924.397 144.766C925.251 144.848 950.825 144.766 950.825 144.766V154.953C950.825 154.953 925.106 155.156 924.447 155.116Z" fill="#4C47C4"/>
<path d="M924.447 51.4168C913.106 50.7183 904.151 44.0951 900.524 33.7187C899.805 31.6656 898.99 28.3026 898.99 24.3808V24.2596V-0.428051H908.871V22.5649C908.871 25.7302 909.1 26.5631 909.282 27.3564C911.04 35.0049 916.902 40.3604 924.397 41.0668C925.251 41.1485 950.825 41.0668 950.825 41.0668V51.2534C950.825 51.2534 925.106 51.4563 924.447 51.4168Z" fill="#4C47C4"/>
<path d="M1028.12 258.816C1016.78 258.118 1007.82 251.494 1004.2 241.118C1003.48 239.065 1002.66 235.702 1002.66 231.78V231.659V206.971H1012.54V229.964C1012.54 233.13 1012.77 233.963 1012.95 234.756C1014.71 242.404 1020.57 247.76 1028.07 248.466C1028.92 248.548 1054.5 248.466 1054.5 248.466V258.653C1054.5 258.653 1028.78 258.856 1028.12 258.816Z" fill="#4C47C4"/>
<path d="M1039.03 196.796C1050.37 197.494 1059.32 204.117 1062.95 214.494C1063.67 216.547 1064.49 219.91 1064.49 223.832V223.953V248.641H1054.6V225.648C1054.6 222.482 1054.38 221.649 1054.19 220.856C1052.44 213.208 1046.57 207.852 1039.08 207.146C1038.22 207.064 1012.65 207.146 1012.65 207.146V196.959C1012.65 196.959 1038.37 196.756 1039.03 196.796Z" fill="#4C47C4"/>
<path d="M883.522 41.246C894.863 41.9444 903.819 48.5677 907.445 58.944C908.165 60.9972 908.979 64.3602 908.979 68.2819V68.4032V93.0908H899.099V70.0979C899.099 66.9325 898.869 66.0997 898.687 65.3064C896.929 57.6579 891.068 52.3023 883.572 51.596C882.718 51.5143 857.145 51.596 857.145 51.596V41.4094C857.145 41.4094 882.863 41.2065 883.522 41.246Z" fill="#4C47C4"/>
<path d="M1090.86 144.946C1102.2 145.644 1111.16 152.267 1114.79 162.644C1115.5 164.697 1116.32 168.06 1116.32 171.982V172.103V196.791H1106.44V173.798C1106.44 170.632 1106.21 169.799 1106.03 169.006C1104.27 161.358 1098.41 156.002 1090.91 155.296C1090.06 155.214 1064.48 155.296 1064.48 155.296V145.109C1064.48 145.109 1090.2 144.906 1090.86 144.946Z" fill="#4C47C4"/>
<path d="M1090.86 41.246C1102.2 41.9444 1111.16 48.5677 1114.79 58.944C1115.5 60.9972 1116.32 64.3602 1116.32 68.2819V68.4032V93.0908H1106.44V70.0979C1106.44 66.9325 1106.21 66.0997 1106.03 65.3064C1104.27 57.6579 1098.41 52.3023 1090.91 51.596C1090.06 51.5143 1064.48 51.596 1064.48 51.596V41.4094C1064.48 41.4094 1090.2 41.2065 1090.86 41.246Z" fill="#4C47C4"/>
<path d="M1090.86 248.645C1102.2 249.344 1111.16 255.967 1114.79 266.343C1115.5 268.397 1116.32 271.76 1116.32 275.681V275.803V300.49H1106.44V277.497C1106.44 274.332 1106.21 273.499 1106.03 272.706C1104.27 265.057 1098.41 259.702 1090.91 258.995C1090.06 258.914 1064.48 258.995 1064.48 258.995V248.809C1064.48 248.809 1090.2 248.606 1090.86 248.645Z" fill="#4C47C4"/>
<path d="M987.193 144.946C998.534 145.644 1007.49 152.267 1011.12 162.644C1011.84 164.697 1012.65 168.06 1012.65 171.982V172.103V196.791H1002.77V173.798C1002.77 170.632 1002.54 169.799 1002.36 169.006C1000.6 161.358 994.739 156.002 987.243 155.296C986.389 155.214 960.815 155.296 960.815 155.296V145.109C960.815 145.109 986.534 144.906 987.193 144.946Z" fill="#4C47C4"/>
<path d="M987.193 41.246C998.534 41.9444 1007.49 48.5677 1011.12 58.944C1011.84 60.9972 1012.65 64.3602 1012.65 68.2819V68.4032V93.0908H1002.77V70.0979C1002.77 66.9325 1002.54 66.0997 1002.36 65.3064C1000.6 57.6579 994.739 52.3023 987.243 51.596C986.389 51.5143 960.815 51.596 960.815 51.596V41.4094C960.815 41.4094 986.534 41.2065 987.193 41.246Z" fill="#4C47C4"/>
<path d="M935.356 93.0956C946.697 93.794 955.653 100.417 959.279 110.794C959.999 112.847 960.813 116.21 960.813 120.132V120.253V144.94H950.933V121.947C950.933 118.782 950.703 117.949 950.521 117.156C948.763 109.507 942.902 104.152 935.406 103.446C934.552 103.364 908.979 103.446 908.979 103.446V93.259C908.979 93.259 934.697 93.0561 935.356 93.0956Z" fill="#4C47C4"/>
<path d="M935.356 -10.6041C946.697 -9.90567 955.653 -3.28241 959.279 7.09393C959.999 9.14706 960.813 12.5101 960.813 16.4318V16.5531V41.2407H950.933V18.2478C950.933 15.0824 950.703 14.2496 950.521 13.4563C948.763 5.80776 942.902 0.452221 935.406 -0.254116C934.552 -0.335819 908.979 -0.254116 908.979 -0.254116V-10.4407C908.979 -10.4407 934.697 -10.6436 935.356 -10.6041Z" fill="#4C47C4"/>
<path d="M831.688 -10.6041C843.029 -9.90567 851.985 -3.28241 855.611 7.09393C856.331 9.14706 857.145 12.5101 857.145 16.4318V16.5531V41.2407H847.265V18.2478C847.265 15.0824 847.035 14.2496 846.853 13.4563C845.095 5.80776 839.234 0.452221 831.738 -0.254116C830.884 -0.335819 805.311 -0.254116 805.311 -0.254116V-10.4407C805.311 -10.4407 831.029 -10.6436 831.688 -10.6041Z" fill="#4C47C4"/>
<path d="M1039.03 93.0956C1050.37 93.794 1059.32 100.417 1062.95 110.794C1063.67 112.847 1064.49 116.21 1064.49 120.132V120.253V144.94H1054.6V121.947C1054.6 118.782 1054.38 117.949 1054.19 117.156C1052.44 109.507 1046.57 104.152 1039.08 103.446C1038.22 103.364 1012.65 103.446 1012.65 103.446V93.259C1012.65 93.259 1038.37 93.0561 1039.03 93.0956Z" fill="#4C47C4"/>
<path d="M1039.03 -10.6041C1050.37 -9.90567 1059.32 -3.28241 1062.95 7.09393C1063.67 9.14706 1064.49 12.5101 1064.49 16.4318V16.5531V41.2407H1054.6V18.2478C1054.6 15.0824 1054.38 14.2496 1054.19 13.4563C1052.44 5.80776 1046.57 0.452221 1039.08 -0.254116C1038.22 -0.335819 1012.65 -0.254116 1012.65 -0.254116V-10.4407C1012.65 -10.4407 1038.37 -10.6436 1039.03 -10.6041Z" fill="#4C47C4"/>
<path d="M1183.62 206.967C1172.28 206.268 1163.32 199.645 1159.7 189.269C1158.98 187.215 1158.16 183.852 1158.16 179.931V179.809V155.122H1168.04V178.115C1168.04 181.28 1168.27 182.113 1168.46 182.906C1170.21 190.555 1176.08 195.91 1183.57 196.617C1184.43 196.698 1210 196.617 1210 196.617V206.803C1210 206.803 1184.28 207.006 1183.62 206.967Z" fill="#4C47C4"/>
<path d="M1183.62 414.366C1172.28 413.668 1163.32 407.044 1159.7 396.668C1158.98 394.615 1158.16 391.252 1158.16 387.33V387.209V362.521H1168.04V385.514C1168.04 388.679 1168.27 389.512 1168.46 390.306C1170.21 397.954 1176.08 403.31 1183.57 404.016C1184.43 404.098 1210 404.016 1210 404.016V414.203C1210 414.203 1184.28 414.406 1183.62 414.366Z" fill="#4C47C4"/>
<path d="M1183.62 103.266C1172.28 102.568 1163.32 95.9447 1159.7 85.5683C1158.98 83.5152 1158.16 80.1522 1158.16 76.2304V76.1092V51.4216H1168.04V74.4145C1168.04 77.5799 1168.27 78.4127 1168.46 79.206C1170.21 86.8545 1176.08 92.2101 1183.57 92.9164C1184.43 92.9981 1210 92.9164 1210 92.9164V103.103C1210 103.103 1184.28 103.306 1183.62 103.266Z" fill="#4C47C4"/>
<path d="M1390.96 206.967C1379.62 206.268 1370.66 199.645 1367.04 189.269C1366.32 187.215 1365.5 183.852 1365.5 179.931V179.809V155.122H1375.38V178.115C1375.38 181.28 1375.61 182.113 1375.8 182.906C1377.55 190.555 1383.42 195.91 1390.91 196.617C1391.76 196.698 1417.34 196.617 1417.34 196.617V206.803C1417.34 206.803 1391.62 207.006 1390.96 206.967Z" fill="#4C47C4"/>
<path d="M1390.96 103.266C1379.62 102.568 1370.66 95.9447 1367.04 85.5683C1366.32 83.5152 1365.5 80.1522 1365.5 76.2304V76.1092V51.4216H1375.38V74.4145C1375.38 77.5799 1375.61 78.4127 1375.8 79.206C1377.55 86.8545 1383.42 92.2101 1390.91 92.9164C1391.76 92.9981 1417.34 92.9164 1417.34 92.9164V103.103C1417.34 103.103 1391.62 103.306 1390.96 103.266Z" fill="#4C47C4"/>
<path d="M1287.29 206.967C1275.95 206.268 1266.99 199.645 1263.37 189.269C1262.65 187.215 1261.83 183.852 1261.83 179.931V179.809V155.122H1271.71V178.115C1271.71 181.28 1271.94 182.113 1272.13 182.906C1273.88 190.555 1279.75 195.91 1287.24 196.617C1288.1 196.698 1313.67 196.617 1313.67 196.617V206.803C1313.67 206.803 1287.95 207.006 1287.29 206.967Z" fill="#4C47C4"/>
<path d="M1287.29 414.366C1275.95 413.668 1266.99 407.044 1263.37 396.668C1262.65 394.615 1261.83 391.252 1261.83 387.33V387.209V362.521H1271.71V385.514C1271.71 388.679 1271.94 389.512 1272.13 390.306C1273.88 397.954 1279.75 403.31 1287.24 404.016C1288.1 404.098 1313.67 404.016 1313.67 404.016V414.203C1313.67 414.203 1287.95 414.406 1287.29 414.366Z" fill="#4C47C4"/>
<path d="M1339.13 466.216C1327.78 465.518 1318.83 458.894 1315.2 448.518C1314.48 446.465 1313.67 443.102 1313.67 439.18V439.059V414.371H1323.55V437.364C1323.55 440.53 1323.78 441.362 1323.96 442.156C1325.72 449.804 1331.58 455.16 1339.08 455.866C1339.93 455.948 1365.5 455.866 1365.5 455.866V466.053C1365.5 466.053 1339.78 466.256 1339.13 466.216Z" fill="#4C47C4"/>
<path d="M1390.96 518.066C1379.62 517.368 1370.66 510.744 1367.04 500.368C1366.32 498.315 1365.5 494.952 1365.5 491.03V490.909V466.221H1375.38V489.214C1375.38 492.38 1375.61 493.213 1375.79 494.006C1377.55 501.654 1383.41 507.01 1390.91 507.716C1391.76 507.798 1417.34 507.716 1417.34 507.716V517.903C1417.34 517.903 1391.62 518.106 1390.96 518.066Z" fill="#4C47C4"/>
<path d="M1287.29 103.266C1275.95 102.568 1266.99 95.9447 1263.37 85.5683C1262.65 83.5152 1261.83 80.1522 1261.83 76.2304V76.1092V51.4216H1271.71V74.4145C1271.71 77.5799 1271.94 78.4127 1272.13 79.206C1273.88 86.8545 1279.75 92.2101 1287.24 92.9164C1288.1 92.9981 1313.67 92.9164 1313.67 92.9164V103.103C1313.67 103.103 1287.95 103.306 1287.29 103.266Z" fill="#4C47C4"/>
<path d="M1183.62 310.666C1172.28 309.967 1163.32 303.344 1159.7 292.968C1158.98 290.915 1158.16 287.552 1158.16 283.63V283.509V258.821H1168.04V281.814C1168.04 284.979 1168.27 285.812 1168.46 286.605C1170.21 294.254 1176.08 299.609 1183.57 300.316C1184.43 300.398 1210 300.316 1210 300.316V310.502C1210 310.502 1184.28 310.705 1183.62 310.666Z" fill="#4C47C4"/>
<path d="M1390.96 310.666C1379.62 309.968 1370.66 303.345 1367.04 292.968C1366.32 290.915 1365.5 287.552 1365.5 283.63V283.509V258.821H1375.38V281.814C1375.38 284.98 1375.61 285.813 1375.8 286.606C1377.55 294.254 1383.42 299.61 1390.91 300.316C1391.76 300.398 1417.34 300.316 1417.34 300.316V310.503C1417.34 310.503 1391.62 310.706 1390.96 310.666Z" fill="#4C47C4"/>
<path d="M1287.29 310.666C1275.95 309.967 1266.99 303.344 1263.37 292.968C1262.65 290.915 1261.83 287.552 1261.83 283.63V283.509V258.821H1271.71V281.814C1271.71 284.979 1271.94 285.812 1272.13 286.605C1273.88 294.254 1279.75 299.609 1287.24 300.316C1288.1 300.398 1313.67 300.316 1313.67 300.316V310.502C1313.67 310.502 1287.95 310.705 1287.29 310.666Z" fill="#4C47C4"/>
<path d="M1131.79 155.116C1120.45 154.418 1111.49 147.795 1107.86 137.418C1107.14 135.365 1106.33 132.002 1106.33 128.081V127.959V103.272H1116.21V126.265C1116.21 129.43 1116.44 130.263 1116.62 131.056C1118.38 138.705 1124.24 144.06 1131.74 144.766C1132.59 144.848 1158.16 144.766 1158.16 144.766V154.953C1158.16 154.953 1132.45 155.156 1131.79 155.116Z" fill="#4C47C4"/>
<path d="M1131.79 51.4168C1120.45 50.7183 1111.49 44.0951 1107.86 33.7187C1107.14 31.6656 1106.33 28.3026 1106.33 24.3808V24.2596V-0.428051H1116.21V22.5649C1116.21 25.7302 1116.44 26.5631 1116.62 27.3564C1118.38 35.0049 1124.24 40.3604 1131.74 41.0668C1132.59 41.1485 1158.16 41.0668 1158.16 41.0668V51.2534C1158.16 51.2534 1132.45 51.4563 1131.79 51.4168Z" fill="#4C47C4"/>
<path d="M1339.13 155.116C1327.79 154.418 1318.83 147.795 1315.2 137.418C1314.48 135.365 1313.67 132.002 1313.67 128.081V127.959V103.272H1323.55V126.265C1323.55 129.43 1323.78 130.263 1323.96 131.056C1325.72 138.705 1331.58 144.06 1339.08 144.766C1339.93 144.848 1365.5 144.766 1365.5 144.766V154.953C1365.5 154.953 1339.79 155.156 1339.13 155.116Z" fill="#4C47C4"/>
<path d="M1339.13 51.4168C1327.79 50.7183 1318.83 44.0951 1315.2 33.7187C1314.48 31.6656 1313.67 28.3026 1313.67 24.3808V24.2596V-0.428051H1323.55V22.5649C1323.55 25.7302 1323.78 26.5631 1323.96 27.3564C1325.72 35.0049 1331.58 40.3604 1339.08 41.0668C1339.93 41.1485 1365.5 41.0668 1365.5 41.0668V51.2534C1365.5 51.2534 1339.79 51.4563 1339.13 51.4168Z" fill="#4C47C4"/>
<path d="M1235.46 155.116C1224.12 154.418 1215.16 147.795 1211.53 137.418C1210.81 135.365 1210 132.002 1210 128.081V127.959V103.272H1219.88V126.265C1219.88 129.43 1220.11 130.263 1220.29 131.056C1222.05 138.705 1227.91 144.06 1235.41 144.766C1236.26 144.848 1261.83 144.766 1261.83 144.766V154.953C1261.83 154.953 1236.12 155.156 1235.46 155.116Z" fill="#4C47C4"/>
<path d="M1235.46 51.4168C1224.12 50.7183 1215.16 44.0951 1211.53 33.7187C1210.81 31.6656 1210 28.3026 1210 24.3808V24.2596V-0.428051H1219.88V22.5649C1219.88 25.7302 1220.11 26.5631 1220.29 27.3564C1222.05 35.0049 1227.91 40.3604 1235.41 41.0668C1236.26 41.1485 1261.83 41.0668 1261.83 41.0668V51.2534C1261.83 51.2534 1236.12 51.4563 1235.46 51.4168Z" fill="#4C47C4"/>
<path d="M1131.79 258.816C1120.45 258.118 1111.49 251.494 1107.86 241.118C1107.14 239.065 1106.33 235.702 1106.33 231.78V231.659V206.971H1116.21V229.964C1116.21 233.13 1116.44 233.963 1116.62 234.756C1118.38 242.404 1124.24 247.76 1131.74 248.466C1132.59 248.548 1158.16 248.466 1158.16 248.466V258.653C1158.16 258.653 1132.45 258.856 1131.79 258.816Z" fill="#4C47C4"/>
<path d="M1339.13 258.816C1327.79 258.118 1318.83 251.494 1315.2 241.118C1314.48 239.065 1313.67 235.702 1313.67 231.78V231.659V206.971H1323.55V229.964C1323.55 233.13 1323.78 233.963 1323.96 234.756C1325.72 242.404 1331.58 247.76 1339.08 248.466C1339.93 248.548 1365.5 248.466 1365.5 248.466V258.653C1365.5 258.653 1339.79 258.856 1339.13 258.816Z" fill="#4C47C4"/>
<path d="M1235.46 258.816C1224.12 258.118 1215.16 251.494 1211.53 241.118C1210.81 239.065 1210 235.702 1210 231.78V231.659V206.971H1219.88V229.964C1219.88 233.13 1220.11 233.963 1220.29 234.756C1222.05 242.404 1227.91 247.76 1235.41 248.466C1236.26 248.548 1261.83 248.466 1261.83 248.466V258.653C1261.83 258.653 1236.12 258.856 1235.46 258.816Z" fill="#4C47C4"/>
<path d="M1235.46 466.216C1224.12 465.517 1215.16 458.894 1211.53 448.518C1210.81 446.464 1210 443.101 1210 439.18V439.058V414.371H1219.88V437.364C1219.88 440.529 1220.11 441.362 1220.29 442.155C1222.05 449.804 1227.91 455.159 1235.41 455.866C1236.26 455.947 1261.83 455.866 1261.83 455.866V466.052C1261.83 466.052 1236.12 466.255 1235.46 466.216Z" fill="#4C47C4"/>
<path d="M1287.29 518.066C1275.95 517.368 1266.99 510.744 1263.37 500.368C1262.65 498.315 1261.83 494.952 1261.83 491.03V490.909V466.221H1271.71V489.214C1271.71 492.38 1271.94 493.213 1272.13 494.006C1273.88 501.654 1279.75 507.01 1287.24 507.716C1288.1 507.798 1313.67 507.716 1313.67 507.716V517.903C1313.67 517.903 1287.95 518.106 1287.29 518.066Z" fill="#4C47C4"/>
<path d="M1339.13 569.916C1327.78 569.217 1318.83 562.594 1315.2 552.218C1314.48 550.165 1313.67 546.802 1313.67 542.88V542.759V518.071H1323.55V541.064C1323.55 544.229 1323.78 545.062 1323.96 545.855C1325.72 553.504 1331.58 558.859 1339.08 559.566C1339.93 559.648 1365.5 559.566 1365.5 559.566V569.752C1365.5 569.752 1339.78 569.955 1339.13 569.916Z" fill="#4C47C4"/>
<path d="M1390.96 621.916C1379.62 621.217 1370.66 614.594 1367.04 604.218C1366.32 602.165 1365.5 598.802 1365.5 594.88V594.759V570.071H1375.38V593.064C1375.38 596.229 1375.61 597.062 1375.79 597.855C1377.55 605.504 1383.41 610.859 1390.91 611.566C1391.76 611.648 1417.34 611.566 1417.34 611.566V621.752C1417.34 621.752 1391.62 621.955 1390.96 621.916Z" fill="#4C47C4"/>
<path d="M1131.79 362.516C1120.45 361.817 1111.49 355.194 1107.86 344.818C1107.14 342.765 1106.33 339.402 1106.33 335.48V335.359V310.671H1116.21V333.664C1116.21 336.829 1116.44 337.662 1116.62 338.456C1118.38 346.104 1124.24 351.46 1131.74 352.166C1132.59 352.248 1158.16 352.166 1158.16 352.166V362.352C1158.16 362.352 1132.45 362.555 1131.79 362.516Z" fill="#4C47C4"/>
<path d="M1339.13 362.516C1327.79 361.818 1318.83 355.195 1315.2 344.818C1314.48 342.765 1313.67 339.402 1313.67 335.48V335.359V310.672H1323.55V333.665C1323.55 336.83 1323.78 337.663 1323.96 338.456C1325.72 346.105 1331.58 351.46 1339.08 352.166C1339.93 352.248 1365.5 352.166 1365.5 352.166V362.353C1365.5 362.353 1339.79 362.556 1339.13 362.516Z" fill="#4C47C4"/>
<path d="M1390.96 414.366C1379.62 413.668 1370.66 407.044 1367.04 396.668C1366.32 394.615 1365.5 391.252 1365.5 387.33V387.209V362.521H1375.38V385.514C1375.38 388.679 1375.61 389.512 1375.8 390.306C1377.55 397.954 1383.42 403.31 1390.91 404.016C1391.76 404.098 1417.34 404.016 1417.34 404.016V414.203C1417.34 414.203 1391.62 414.406 1390.96 414.366Z" fill="#4C47C4"/>
<path d="M1235.46 362.516C1224.12 361.818 1215.16 355.195 1211.53 344.818C1210.81 342.765 1210 339.402 1210 335.48V335.359V310.672H1219.88V333.665C1219.88 336.83 1220.11 337.663 1220.29 338.456C1222.05 346.105 1227.91 351.46 1235.41 352.166C1236.26 352.248 1261.83 352.166 1261.83 352.166V362.353C1261.83 362.353 1236.12 362.556 1235.46 362.516Z" fill="#4C47C4"/>
<path d="M1142.7 196.796C1154.04 197.494 1162.99 204.117 1166.62 214.494C1167.34 216.547 1168.16 219.91 1168.16 223.832V223.953V248.641H1158.27V225.648C1158.27 222.482 1158.05 221.649 1157.86 220.856C1156.11 213.208 1150.24 207.852 1142.75 207.146C1141.89 207.064 1116.32 207.146 1116.32 207.146V196.959C1116.32 196.959 1142.04 196.756 1142.7 196.796Z" fill="#4C47C4"/>
<path d="M1350.04 196.796C1361.38 197.494 1370.33 204.117 1373.96 214.494C1374.68 216.547 1375.49 219.91 1375.49 223.832V223.953V248.641H1365.61V225.648C1365.61 222.482 1365.38 221.649 1365.2 220.856C1363.44 213.208 1357.58 207.852 1350.09 207.146C1349.23 207.064 1323.66 207.146 1323.66 207.146V196.959C1323.66 196.959 1349.38 196.756 1350.04 196.796Z" fill="#4C47C4"/>
<path d="M1246.37 196.796C1257.71 197.494 1266.66 204.117 1270.29 214.494C1271.01 216.547 1271.82 219.91 1271.82 223.832V223.953V248.641H1261.94V225.648C1261.94 222.482 1261.71 221.649 1261.53 220.856C1259.77 213.208 1253.91 207.852 1246.42 207.146C1245.56 207.064 1219.99 207.146 1219.99 207.146V196.959C1219.99 196.959 1245.71 196.756 1246.37 196.796Z" fill="#4C47C4"/>
<path d="M1246.37 404.195C1257.71 404.894 1266.66 411.517 1270.29 421.893C1271.01 423.946 1271.82 427.309 1271.82 431.231V431.352V456.04H1261.94V433.047C1261.94 429.882 1261.71 429.049 1261.53 428.256C1259.77 420.607 1253.91 415.252 1246.42 414.545C1245.56 414.463 1219.99 414.545 1219.99 414.545V404.359C1219.99 404.359 1245.71 404.156 1246.37 404.195Z" fill="#4C47C4"/>
<path d="M1298.2 456.045C1309.54 456.744 1318.5 463.367 1322.12 473.743C1322.84 475.796 1323.66 479.16 1323.66 483.081V483.202V507.89H1313.78V484.897C1313.78 481.732 1313.55 480.899 1313.37 480.106C1311.61 472.457 1305.75 467.102 1298.25 466.395C1297.4 466.314 1271.82 466.395 1271.82 466.395V456.209C1271.82 456.209 1297.54 456.006 1298.2 456.045Z" fill="#4C47C4"/>
<path d="M1350.03 507.895C1361.38 508.594 1370.33 515.217 1373.96 525.593C1374.68 527.647 1375.49 531.01 1375.49 534.931V535.053V559.74H1365.61V536.747C1365.61 533.582 1365.38 532.749 1365.2 531.956C1363.44 524.307 1357.58 518.952 1350.08 518.245C1349.23 518.164 1323.66 518.245 1323.66 518.245V508.059C1323.66 508.059 1349.38 507.856 1350.03 507.895Z" fill="#4C47C4"/>
<path d="M1142.7 300.496C1154.04 301.194 1162.99 307.817 1166.62 318.194C1167.34 320.247 1168.16 323.61 1168.16 327.531V327.653V352.34H1158.27V329.347C1158.27 326.182 1158.05 325.349 1157.86 324.556C1156.11 316.907 1150.24 311.552 1142.75 310.845C1141.89 310.764 1116.32 310.845 1116.32 310.845V300.659C1116.32 300.659 1142.04 300.456 1142.7 300.496Z" fill="#4C47C4"/>
<path d="M1350.04 300.496C1361.38 301.194 1370.33 307.817 1373.96 318.194C1374.68 320.247 1375.49 323.61 1375.49 327.531V327.653V352.34H1365.61V329.347C1365.61 326.182 1365.38 325.349 1365.2 324.556C1363.44 316.907 1357.58 311.552 1350.09 310.845C1349.23 310.764 1323.66 310.845 1323.66 310.845V300.659C1323.66 300.659 1349.38 300.456 1350.04 300.496Z" fill="#4C47C4"/>
<path d="M1246.37 300.496C1257.71 301.194 1266.66 307.817 1270.29 318.194C1271.01 320.247 1271.82 323.61 1271.82 327.531V327.653V352.34H1261.94V329.347C1261.94 326.182 1261.71 325.349 1261.53 324.556C1259.77 316.907 1253.91 311.552 1246.42 310.845C1245.56 310.764 1219.99 310.845 1219.99 310.845V300.659C1219.99 300.659 1245.71 300.456 1246.37 300.496Z" fill="#4C47C4"/>
<path d="M1194.53 144.946C1205.87 145.644 1214.83 152.267 1218.46 162.644C1219.17 164.697 1219.99 168.06 1219.99 171.982V172.103V196.791H1210.11V173.798C1210.11 170.632 1209.88 169.799 1209.7 169.006C1207.94 161.358 1202.08 156.002 1194.58 155.296C1193.73 155.214 1168.15 155.296 1168.15 155.296V145.109C1168.15 145.109 1193.87 144.906 1194.53 144.946Z" fill="#4C47C4"/>
<path d="M1194.53 352.346C1205.87 353.044 1214.83 359.667 1218.46 370.044C1219.17 372.097 1219.99 375.46 1219.99 379.382V379.503V404.19H1210.11V381.197C1210.11 378.032 1209.88 377.199 1209.7 376.406C1207.94 368.757 1202.08 363.402 1194.58 362.696C1193.73 362.614 1168.15 362.696 1168.15 362.696V352.509C1168.15 352.509 1193.87 352.306 1194.53 352.346Z" fill="#4C47C4"/>
<path d="M1194.53 41.246C1205.87 41.9444 1214.83 48.5677 1218.46 58.944C1219.17 60.9972 1219.99 64.3602 1219.99 68.2819V68.4032V93.0908H1210.11V70.0979C1210.11 66.9325 1209.88 66.0997 1209.7 65.3064C1207.94 57.6579 1202.08 52.3023 1194.58 51.596C1193.73 51.5143 1168.15 51.596 1168.15 51.596V41.4094C1168.15 41.4094 1193.87 41.2065 1194.53 41.246Z" fill="#4C47C4"/>
<path d="M1194.53 248.645C1205.87 249.344 1214.83 255.967 1218.46 266.343C1219.17 268.397 1219.99 271.76 1219.99 275.681V275.803V300.49H1210.11V277.497C1210.11 274.332 1209.88 273.499 1209.7 272.706C1207.94 265.057 1202.08 259.702 1194.58 258.995C1193.73 258.914 1168.15 258.995 1168.15 258.995V248.809C1168.15 248.809 1193.87 248.606 1194.53 248.645Z" fill="#4C47C4"/>
<path d="M1298.2 248.645C1309.54 249.344 1318.5 255.967 1322.13 266.343C1322.85 268.397 1323.66 271.76 1323.66 275.681V275.803V300.49H1313.78V277.497C1313.78 274.332 1313.55 273.499 1313.37 272.706C1311.61 265.057 1305.75 259.702 1298.25 258.995C1297.4 258.914 1271.83 258.995 1271.83 258.995V248.809C1271.83 248.809 1297.54 248.606 1298.2 248.645Z" fill="#4C47C4"/>
<path d="M1298.2 144.946C1309.54 145.644 1318.5 152.267 1322.13 162.644C1322.85 164.697 1323.66 168.06 1323.66 171.982V172.103V196.791H1313.78V173.798C1313.78 170.632 1313.55 169.799 1313.37 169.006C1311.61 161.358 1305.75 156.002 1298.25 155.296C1297.4 155.214 1271.83 155.296 1271.83 155.296V145.109C1271.83 145.109 1297.54 144.906 1298.2 144.946Z" fill="#4C47C4"/>
<path d="M1298.2 352.346C1309.54 353.044 1318.5 359.667 1322.13 370.044C1322.85 372.097 1323.66 375.46 1323.66 379.382V379.503V404.19H1313.78V381.197C1313.78 378.032 1313.55 377.199 1313.37 376.406C1311.61 368.757 1305.75 363.402 1298.25 362.696C1297.4 362.614 1271.83 362.696 1271.83 362.696V352.509C1271.83 352.509 1297.54 352.306 1298.2 352.346Z" fill="#4C47C4"/>
<path d="M1350.04 404.195C1361.38 404.894 1370.33 411.517 1373.96 421.893C1374.68 423.946 1375.5 427.309 1375.5 431.231V431.352V456.04H1365.61V433.047C1365.61 429.882 1365.38 429.049 1365.2 428.256C1363.45 420.607 1357.58 415.252 1350.09 414.545C1349.23 414.463 1323.66 414.545 1323.66 414.545V404.359C1323.66 404.359 1349.38 404.156 1350.04 404.195Z" fill="#4C47C4"/>
<path d="M1298.2 41.246C1309.54 41.9444 1318.5 48.5677 1322.13 58.944C1322.85 60.9972 1323.66 64.3602 1323.66 68.2819V68.4032V93.0908H1313.78V70.0979C1313.78 66.9325 1313.55 66.0997 1313.37 65.3064C1311.61 57.6579 1305.75 52.3023 1298.25 51.596C1297.4 51.5143 1271.83 51.596 1271.83 51.596V41.4094C1271.83 41.4094 1297.54 41.2065 1298.2 41.246Z" fill="#4C47C4"/>
<path d="M1246.37 93.0956C1257.71 93.794 1266.66 100.417 1270.29 110.794C1271.01 112.847 1271.82 116.21 1271.82 120.132V120.253V144.94H1261.94V121.947C1261.94 118.782 1261.71 117.949 1261.53 117.156C1259.77 109.507 1253.91 104.152 1246.42 103.446C1245.56 103.364 1219.99 103.446 1219.99 103.446V93.259C1219.99 93.259 1245.71 93.0561 1246.37 93.0956Z" fill="#4C47C4"/>
<path d="M1246.37 -10.6041C1257.71 -9.90567 1266.66 -3.28241 1270.29 7.09393C1271.01 9.14706 1271.82 12.5101 1271.82 16.4318V16.5531V41.2407H1261.94V18.2478C1261.94 15.0824 1261.71 14.2496 1261.53 13.4563C1259.77 5.80776 1253.91 0.452221 1246.42 -0.254116C1245.56 -0.335819 1219.99 -0.254116 1219.99 -0.254116V-10.4407C1219.99 -10.4407 1245.71 -10.6436 1246.37 -10.6041Z" fill="#4C47C4"/>
<path d="M1142.7 93.0956C1154.04 93.794 1162.99 100.417 1166.62 110.794C1167.34 112.847 1168.16 116.21 1168.16 120.132V120.253V144.94H1158.27V121.947C1158.27 118.782 1158.05 117.949 1157.86 117.156C1156.11 109.507 1150.24 104.152 1142.75 103.446C1141.89 103.364 1116.32 103.446 1116.32 103.446V93.259C1116.32 93.259 1142.04 93.0561 1142.7 93.0956Z" fill="#4C47C4"/>
<path d="M1142.7 -10.6041C1154.04 -9.90567 1162.99 -3.28241 1166.62 7.09393C1167.34 9.14706 1168.16 12.5101 1168.16 16.4318V16.5531V41.2407H1158.27V18.2478C1158.27 15.0824 1158.05 14.2496 1157.86 13.4563C1156.11 5.80776 1150.24 0.452221 1142.75 -0.254116C1141.89 -0.335819 1116.32 -0.254116 1116.32 -0.254116V-10.4407C1116.32 -10.4407 1142.04 -10.6436 1142.7 -10.6041Z" fill="#4C47C4"/>
<path d="M1350.04 93.0956C1361.38 93.794 1370.33 100.417 1373.96 110.794C1374.68 112.847 1375.49 116.21 1375.49 120.132V120.253V144.94H1365.61V121.947C1365.61 118.782 1365.38 117.949 1365.2 117.156C1363.44 109.507 1357.58 104.152 1350.09 103.446C1349.23 103.364 1323.66 103.446 1323.66 103.446V93.259C1323.66 93.259 1349.38 93.0561 1350.04 93.0956Z" fill="#4C47C4"/>
<path d="M1350.04 -10.6041C1361.38 -9.90567 1370.33 -3.28241 1373.96 7.09393C1374.68 9.14706 1375.49 12.5101 1375.49 16.4318V16.5531V41.2407H1365.61V18.2478C1365.61 15.0824 1365.38 14.2496 1365.2 13.4563C1363.44 5.80776 1357.58 0.452221 1350.09 -0.254116C1349.23 -0.335819 1323.66 -0.254116 1323.66 -0.254116V-10.4407C1323.66 -10.4407 1349.38 -10.6436 1350.04 -10.6041Z" fill="#4C47C4"/>
</g>
</g>
</g>
</svg>
