<svg width="80" height="41" viewBox="0 0 80 41" fill="none" xmlns="http://www.w3.org/2000/svg">
<rect x="1" y="1" width="78" height="39" stroke="white" stroke-width="2"/>
<rect x="1" y="1" width="78" height="39" fill="#348345" stroke="white" stroke-width="2"/>
<path d="M28.7919 26H26.5519L21.4799 18.336V26H19.2399V14.816H21.4799L26.5519 22.496V14.816H28.7919V26ZM34.0456 16.64V19.44H37.8056V21.216H34.0456V24.176H38.2856V26H31.8056V14.816H38.2856V16.64H34.0456ZM56.0492 14.832L52.9292 26H50.2892L48.1932 18.048L46.0012 26L43.3772 26.016L40.3692 14.832H42.7692L44.7372 23.504L47.0092 14.832H49.5052L51.6492 23.456L53.6332 14.832H56.0492ZM61.2078 14.64L60.9518 22.368H59.0638L58.7918 14.64H61.2078ZM60.0558 26.112C59.6505 26.112 59.3145 25.9893 59.0478 25.744C58.7918 25.488 58.6638 25.1733 58.6638 24.8C58.6638 24.4267 58.7918 24.1173 59.0478 23.872C59.3145 23.616 59.6505 23.488 60.0558 23.488C60.4505 23.488 60.7758 23.616 61.0318 23.872C61.2878 24.1173 61.4158 24.4267 61.4158 24.8C61.4158 25.1733 61.2878 25.488 61.0318 25.744C60.7758 25.9893 60.4505 26.112 60.0558 26.112Z" fill="white"/>
</svg>
