<svg width="155" height="44" viewBox="0 0 155 44" fill="none" xmlns="http://www.w3.org/2000/svg">
<path fill-rule="evenodd" clip-rule="evenodd" d="M44.1245 22.1523C48.9054 22.1523 52.2953 18.5485 52.2953 13.6607C52.2953 8.77283 48.9054 5.27601 44.1245 5.27601H37.8095C33.1709 5.27601 29.7457 8.73666 29.7457 13.6607C29.7457 18.5485 33.1356 22.1523 37.8095 22.1523H44.1245ZM37.8095 26.6831C30.5666 26.6831 25.2148 20.9751 25.2148 13.4468C25.2148 5.8115 30.5666 0.744385 37.8095 0.744385H44.1245C51.6175 0.744385 56.8262 5.91845 56.8262 13.4468C56.8262 20.9751 51.5098 26.6831 44.1245 26.6831H37.8095Z" fill="#30299A"/>
<path fill-rule="evenodd" clip-rule="evenodd" d="M99.8638 26.6833V5.27626H90.0166V0.744629H114.243V5.27626H104.395V26.6833H99.8638Z" fill="#30299A"/>
<path fill-rule="evenodd" clip-rule="evenodd" d="M117.76 26.6833H122.291V0.744629H117.76V26.6833Z" fill="#30299A"/>
<path fill-rule="evenodd" clip-rule="evenodd" d="M127.037 26.6833V22.1525H146.482C148.908 22.1525 150.264 20.7961 150.264 18.7626C150.264 16.5507 148.908 15.4089 146.482 15.4089H134.565C129.677 15.4089 126.645 12.3045 126.645 8.02291C126.645 3.84907 129.464 0.744629 134.637 0.744629H153.261V5.27626H134.637C132.567 5.27626 131.354 6.48878 131.354 8.45146C131.354 10.4134 132.603 11.5913 134.601 11.5913H146.482C151.727 11.5913 154.545 14.0533 154.545 19.0835C154.545 23.4366 151.905 26.6833 146.482 26.6833H127.037Z" fill="#30299A"/>
<path fill-rule="evenodd" clip-rule="evenodd" d="M87.8205 23.4803L84.6264 20.2697L79.7645 15.3811H79.7685C80.2025 15.3512 80.62 15.2954 81.0203 15.2152C82.5576 14.9085 83.8393 14.2464 84.8112 13.3115C85.754 12.4048 86.4051 11.2434 86.7173 9.90745C86.8565 9.31141 86.928 8.68156 86.928 8.0234C86.928 3.84877 84.1098 0.745117 78.9365 0.745117H72.9942C72.6868 0.745117 72.384 0.756912 72.0836 0.774998C66.9245 1.0856 62.8498 4.03198 61.1992 8.64853C60.8721 9.56225 60.501 11.0594 60.501 12.8027V15.1885V26.6838H64.9964V23.8405V14.8016V13.5568C64.9964 12.1485 65.101 11.7789 65.1844 11.4251C65.9841 8.02262 68.6159 5.68407 72.0608 5.3255C72.3659 5.29404 72.6766 5.27596 72.9942 5.27596H78.9365C81.0061 5.27596 82.2187 6.48927 82.2187 8.45195C82.2187 10.4138 80.97 11.591 78.9719 11.591H68.3934V15.4086H73.8081L80.2112 22.1082L83.8362 25.9006L84.5847 26.6838H91.0067L87.8205 23.4803Z" fill="#30299A"/>
<path fill-rule="evenodd" clip-rule="evenodd" d="M19.1053 15.381H19.1006L19.1281 15.4085H19.1533C19.143 15.3904 19.1281 15.3794 19.1053 15.381Z" fill="#30299A"/>
<path fill-rule="evenodd" clip-rule="evenodd" d="M19.1054 15.3809C19.1282 15.3794 19.1431 15.3904 19.1533 15.4085H20.785V11.5908H7.72949V15.4085H19.1282L19.1006 15.3809H19.1054Z" fill="#30299A"/>
<path fill-rule="evenodd" clip-rule="evenodd" d="M19.1279 15.4087L19.1649 15.4457C19.1625 15.4307 19.1586 15.4181 19.1531 15.4087H19.1279Z" fill="#30299A"/>
<path fill-rule="evenodd" clip-rule="evenodd" d="M11.5819 0.775296C6.42276 1.0859 2.34799 4.03228 0.697476 8.64883C0.370362 9.56255 0 11.0589 0 12.803V12.8565V15.1888V15.243V26.6833V26.7376H4.49467V26.6833V23.8942V23.84V14.8561V14.8019V13.6106C4.49467 12.2023 4.59925 11.8327 4.6826 11.4788C5.4823 8.07717 8.14875 5.69459 11.5591 5.37927C11.9483 5.34388 12.4924 5.32973 12.4924 5.32973H19.1535H21.9662V1.33359V0.744629H12.4924C12.185 0.744629 11.8823 0.75721 11.5819 0.775296Z" fill="#30299A"/>
<path fill-rule="evenodd" clip-rule="evenodd" d="M1.52941 41.8936H5.63171V43.1375H0V31.4204H1.52941V41.8936Z" fill="#30299A"/>
<path fill-rule="evenodd" clip-rule="evenodd" d="M10.9883 43.1375H12.5177V31.4204H10.9883V43.1375Z" fill="#30299A"/>
<path fill-rule="evenodd" clip-rule="evenodd" d="M25.6584 31.4204V32.6644H20.5646V36.6149H24.6999V37.8589H20.5646V43.1375H19.0352V31.4204H25.6584Z" fill="#30299A"/>
<path fill-rule="evenodd" clip-rule="evenodd" d="M32.6427 32.6643V36.581H36.9125V37.8423H32.6427V41.877H37.4173V43.1375H31.1133V31.4038H37.4173V32.6643H32.6427Z" fill="#30299A"/>
<path fill-rule="evenodd" clip-rule="evenodd" d="M55.1511 42.8436C54.5401 42.5691 54.0612 42.1877 53.7136 41.7002C53.3661 41.2127 53.1868 40.6497 53.1758 40.0112H54.8066C54.8625 40.56 55.0889 41.0224 55.4876 41.3975C55.8847 41.7733 56.465 41.9613 57.227 41.9613C57.9559 41.9613 58.5299 41.7789 58.9506 41.4148C59.3705 41.0507 59.5812 40.5828 59.5812 40.0112C59.5812 39.563 59.457 39.1981 59.2109 38.9182C58.964 38.6382 58.6565 38.4251 58.2861 38.2797C57.9166 38.1334 57.418 37.9769 56.7906 37.8087C56.0168 37.6066 55.3972 37.4053 54.9324 37.2032C54.4669 37.0019 54.0691 36.685 53.7388 36.2533C53.4085 35.8224 53.2426 35.2421 53.2426 34.5139C53.2426 33.8746 53.4054 33.3093 53.7301 32.8162C54.0557 32.3232 54.5126 31.9418 55.1007 31.6729C55.6889 31.404 56.3644 31.2695 57.1263 31.2695C58.2248 31.2695 59.1244 31.544 59.8242 32.0928C60.5248 32.6425 60.9196 33.3706 61.01 34.2788H59.3288C59.2722 33.8306 59.0371 33.4351 58.6227 33.093C58.2075 32.7518 57.6587 32.5803 56.9753 32.5803C56.3361 32.5803 55.8147 32.7463 55.4113 33.0765C55.0079 33.4068 54.8066 33.8691 54.8066 34.4628C54.8066 34.889 54.9269 35.2366 55.1676 35.5055C55.409 35.7744 55.7054 35.9789 56.0593 36.1188C56.4115 36.2596 56.9077 36.4192 57.5462 36.5985C58.32 36.8116 58.9419 37.0215 59.413 37.2284C59.8832 37.4359 60.2866 37.756 60.6231 38.1869C60.9589 38.6186 61.1272 39.2044 61.1272 39.9436C61.1272 40.5152 60.9762 41.0531 60.6735 41.5579C60.3707 42.0619 59.9225 42.4708 59.3288 42.7846C58.7344 43.0983 58.0345 43.2556 57.227 43.2556C56.454 43.2556 55.762 43.1188 55.1511 42.8436Z" fill="#30299A"/>
<path fill-rule="evenodd" clip-rule="evenodd" d="M66.856 34.1855C67.371 33.2726 68.0748 32.5578 68.9657 32.042C69.8566 31.527 70.8458 31.269 71.9325 31.269C73.2103 31.269 74.3253 31.5773 75.2784 32.1938C76.2306 32.8103 76.9257 33.6839 77.3629 34.8162H75.5308C75.2052 34.1101 74.7374 33.5667 74.1272 33.1853C73.5154 32.8047 72.7841 32.6137 71.9325 32.6137C71.1147 32.6137 70.3803 32.8047 69.7308 33.1853C69.0805 33.5667 68.571 34.1077 68.2006 34.8075C67.831 35.5082 67.6462 36.3291 67.6462 37.2703C67.6462 38.2006 67.831 39.016 68.2006 39.7166C68.571 40.4172 69.0805 40.9582 69.7308 41.3388C70.3803 41.7194 71.1147 41.9105 71.9325 41.9105C72.7841 41.9105 73.5154 41.7225 74.1272 41.3475C74.7374 40.9716 75.2052 40.4306 75.5308 39.7253H77.3629C76.9257 40.8458 76.2306 41.7115 75.2784 42.3225C74.3253 42.9335 73.2103 43.2386 71.9325 43.2386C70.8458 43.2386 69.8566 42.9838 68.9657 42.4735C68.0748 41.9639 67.371 41.2547 66.856 40.3472C66.3401 39.439 66.083 38.4136 66.083 37.2703C66.083 36.127 66.3401 35.0993 66.856 34.1855Z" fill="#30299A"/>
<path fill-rule="evenodd" clip-rule="evenodd" d="M83.2754 43.1375H84.8048V31.4204H83.2754V43.1375Z" fill="#30299A"/>
<path fill-rule="evenodd" clip-rule="evenodd" d="M92.8517 32.6643V36.581H97.1215V37.8423H92.8517V41.877H97.6263V43.1375H91.3223V31.4038H97.6263V32.6643H92.8517Z" fill="#30299A"/>
<path fill-rule="evenodd" clip-rule="evenodd" d="M112.699 43.1377H111.17L105.017 33.8079V43.1377H103.486V31.4033H105.017L111.17 40.7166V31.4033H112.699V43.1377Z" fill="#30299A"/>
<path fill-rule="evenodd" clip-rule="evenodd" d="M118.644 34.1855C119.159 33.2726 119.863 32.5578 120.754 32.042C121.645 31.527 122.634 31.269 123.721 31.269C124.998 31.269 126.114 31.5773 127.066 32.1938C128.019 32.8103 128.714 33.6839 129.151 34.8162H127.319C126.993 34.1101 126.525 33.5667 125.915 33.1853C125.304 32.8047 124.572 32.6137 123.721 32.6137C122.903 32.6137 122.168 32.8047 121.519 33.1853C120.869 33.5667 120.359 34.1077 119.989 34.8075C119.619 35.5082 119.434 36.3291 119.434 37.2703C119.434 38.2006 119.619 39.016 119.989 39.7166C120.359 40.4172 120.869 40.9582 121.519 41.3388C122.168 41.7194 122.903 41.9105 123.721 41.9105C124.572 41.9105 125.304 41.7225 125.915 41.3475C126.525 40.9716 126.993 40.4306 127.319 39.7253H129.151C128.714 40.8458 128.019 41.7115 127.066 42.3225C126.114 42.9335 124.998 43.2386 123.721 43.2386C122.634 43.2386 121.645 42.9838 120.754 42.4735C119.863 41.9639 119.159 41.2547 118.644 40.3472C118.128 39.439 117.871 38.4136 117.871 37.2703C117.871 36.127 118.128 35.0993 118.644 34.1855Z" fill="#30299A"/>
<path fill-rule="evenodd" clip-rule="evenodd" d="M136.561 32.6643V36.581H140.83V37.8423H136.561V41.877H141.335V43.1375H135.031V31.4038H141.335V32.6643H136.561Z" fill="#30299A"/>
<path fill-rule="evenodd" clip-rule="evenodd" d="M148.569 42.8436C147.958 42.5691 147.479 42.1877 147.132 41.7002C146.784 41.2127 146.605 40.6497 146.594 40.0112H148.225C148.28 40.56 148.507 41.0224 148.906 41.3975C149.303 41.7733 149.883 41.9613 150.645 41.9613C151.374 41.9613 151.948 41.7789 152.369 41.4148C152.788 41.0507 152.998 40.5828 152.998 40.0112C152.998 39.563 152.875 39.1981 152.629 38.9182C152.382 38.6382 152.074 38.4251 151.704 38.2797C151.335 38.1334 150.835 37.9769 150.208 37.8087C149.435 37.6066 148.815 37.4053 148.35 37.2032C147.886 37.0019 147.488 36.685 147.157 36.2533C146.826 35.8224 146.661 35.2421 146.661 34.5139C146.661 33.8746 146.823 33.3093 147.149 32.8162C147.474 32.3232 147.93 31.9418 148.519 31.6729C149.107 31.404 149.782 31.2695 150.544 31.2695C151.643 31.2695 152.542 31.544 153.242 32.0928C153.943 32.6425 154.338 33.3706 154.428 34.2788H152.747C152.69 33.8306 152.455 33.4351 152.041 33.093C151.625 32.7518 151.077 32.5803 150.393 32.5803C149.754 32.5803 149.233 32.7463 148.83 33.0765C148.426 33.4068 148.225 33.8691 148.225 34.4628C148.225 34.889 148.345 35.2366 148.586 35.5055C148.827 35.7744 149.123 35.9789 149.477 36.1188C149.83 36.2596 150.326 36.4192 150.965 36.5985C151.738 36.8116 152.36 37.0215 152.831 37.2284C153.301 37.4359 153.705 37.756 154.041 38.1869C154.377 38.6186 154.545 39.2044 154.545 39.9436C154.545 40.5152 154.394 41.0531 154.091 41.5579C153.789 42.0619 153.34 42.4708 152.747 42.7846C152.152 43.0983 151.452 43.2556 150.645 43.2556C149.872 43.2556 149.18 43.1188 148.569 42.8436Z" fill="#30299A"/>
</svg>
