<svg width="17" height="17" viewBox="0 0 17 17" fill="none" xmlns="http://www.w3.org/2000/svg">
<path d="M8.5 8.51061C7.33125 8.51061 6.3325 8.09675 5.49312 7.25843C4.66438 6.43071 4.23938 5.4226 4.23938 4.25531C4.23938 3.08802 4.65375 2.09051 5.49312 1.25218C6.3325 0.413858 7.33125 0 8.5 0C9.66875 0 10.6675 0.413858 11.5069 1.25218C12.3462 2.09051 12.7606 3.08802 12.7606 4.25531C12.7606 5.4226 12.3462 6.4201 11.5069 7.25843C10.6781 8.08614 9.66875 8.51061 8.5 8.51061ZM0 17V14.0287C0 13.4238 0.159375 12.872 0.4675 12.3733C0.775625 11.8745 1.19 11.4819 1.7 11.2166C2.79437 10.6648 3.91 10.2615 5.04688 9.98564C6.18375 9.70974 7.33125 9.57179 8.5 9.57179C9.66875 9.57179 10.8162 9.70974 11.9531 9.98564C13.09 10.2615 14.2056 10.6754 15.3 11.2166C15.81 11.4819 16.2244 11.8639 16.5325 12.3733C16.8406 12.8826 17 13.4345 17 14.0287V17H0ZM2.125 14.8777H14.875V14.0287C14.875 13.8377 14.8219 13.6573 14.7262 13.4981C14.6306 13.339 14.5031 13.2116 14.3438 13.1267C13.3875 12.6492 12.4206 12.2884 11.4431 12.0549C10.4656 11.8215 9.48812 11.6941 8.48938 11.6941C7.49062 11.6941 6.51312 11.8109 5.53562 12.0549C4.55813 12.299 3.59125 12.6492 2.635 13.1267C2.47563 13.2116 2.34812 13.339 2.2525 13.4981C2.15687 13.6573 2.10375 13.8377 2.10375 14.0287V14.8777H2.125ZM8.5 6.38826C9.08438 6.38826 9.58375 6.17603 9.99813 5.76217C10.4125 5.34831 10.625 4.84956 10.625 4.26592C10.625 3.68227 10.4125 3.18352 9.99813 2.76966C9.58375 2.35581 9.08438 2.14357 8.5 2.14357C7.91563 2.14357 7.41625 2.35581 7.00187 2.76966C6.5875 3.18352 6.375 3.68227 6.375 4.26592C6.375 4.84956 6.5875 5.34831 7.00187 5.76217C7.41625 6.17603 7.91563 6.38826 8.5 6.38826Z" fill="#30299A"/>
</svg>
