<svg width="21" height="17" viewBox="0 0 21 17" fill="none" xmlns="http://www.w3.org/2000/svg">
<path d="M8.5 8.5C7.33125 8.5 6.33073 8.08385 5.49844 7.25156C4.66615 6.41927 4.25 5.41875 4.25 4.25C4.25 3.08125 4.66615 2.08073 5.49844 1.24844C6.33073 0.416146 7.33125 0 8.5 0C9.66875 0 10.6693 0.416146 11.5016 1.24844C12.3339 2.08073 12.75 3.08125 12.75 4.25C12.75 5.41875 12.3339 6.41927 11.5016 7.25156C10.6693 8.08385 9.66875 8.5 8.5 8.5ZM0 17V14.025C0 13.4406 0.150521 12.8917 0.451562 12.3781C0.752604 11.8646 1.16875 11.475 1.7 11.2094C2.60312 10.749 3.62135 10.3594 4.75469 10.0406C5.88802 9.72188 7.13646 9.5625 8.5 9.5625L8.7488 9.56923C8.84967 9.5894 8.84429 9.59433 8.95054 9.62975C8.95054 9.95253 8.95054 10.2551 8.95054 10.6183C8.95054 10.9814 8.95054 11.3042 8.95054 11.6875H8.5C7.24271 11.6875 6.1138 11.8469 5.11328 12.1656C4.11276 12.4844 3.29375 12.8031 2.65625 13.1219C2.49687 13.2104 2.36849 13.3344 2.27109 13.4937C2.1737 13.6531 2.125 13.8302 2.125 14.025V14.875L10.1326 14.8816C10.4695 15.206 10.8239 15.6031 11.0915 15.8614C11.5579 16.3115 11.8948 16.6822 12.1799 17H0ZM8.5 6.375C9.08437 6.375 9.58463 6.16693 10.0008 5.75078C10.4169 5.33464 10.625 4.83437 10.625 4.25C10.625 3.66563 10.4169 3.16536 10.0008 2.74922C9.58463 2.33307 9.08437 2.125 8.5 2.125C7.91562 2.125 7.41536 2.33307 6.99922 2.74922C6.58307 3.16536 6.375 3.66563 6.375 4.25C6.375 4.83437 6.58307 5.33464 6.99922 5.75078C7.41536 6.16693 7.91562 6.375 8.5 6.375Z" fill="#30299A"/>
<path d="M14.5199 17L10.625 13.2681L12.1884 11.7964L14.5199 14.0303L19.1827 9.5625L20.7187 11.0605L14.5199 17Z" fill="#30299A"/>
</svg>
