<svg width="18" height="18" viewBox="0 0 18 18" fill="none" xmlns="http://www.w3.org/2000/svg">
<path d="M12.5977 18.0005C13.093 18.0005 13.5163 17.8205 13.8675 17.4695C14.2187 17.1185 14.3988 16.6955 14.3988 16.2005C14.3988 15.7055 14.2187 15.2825 13.8675 14.9315C13.5163 14.5805 13.093 14.4005 12.5977 14.4005C12.1024 14.4005 11.6792 14.5805 11.3279 14.9315C10.9767 15.2825 10.7966 15.7055 10.7966 16.2005C10.7966 16.6955 10.9767 17.1185 11.3279 17.4695C11.6792 17.8205 12.1024 18.0005 12.5977 18.0005ZM3.59226 18.0005C4.08756 18.0005 4.51081 17.8205 4.86203 17.4695C5.21324 17.1185 5.39335 16.6955 5.39335 16.2005C5.39335 15.7055 5.21324 15.2825 4.86203 14.9315C4.51081 14.5805 4.08756 14.4005 3.59226 14.4005C3.09696 14.4005 2.6737 14.5805 2.32249 14.9315C1.97128 15.2825 1.79117 15.7055 1.79117 16.2005C1.79117 16.6955 1.97128 17.1185 2.32249 17.4695C2.6737 17.8205 3.09696 18.0005 3.59226 18.0005ZM13.3632 3.60049L11.2019 8.10049H4.89805L2.42155 3.60049H13.3632ZM14.2187 1.80049H0.935648C0.593441 1.80049 0.323278 1.95349 0.143169 2.25949C-0.0369396 2.56549 -0.0459461 2.88049 0.116152 3.19549L3.31309 8.95549C3.47519 9.25249 3.70032 9.48649 3.97949 9.65749C4.25866 9.82849 4.56485 9.90949 4.88904 9.90949H11.5981L12.5887 11.7095H1.78216V13.5095H12.5977C13.2731 13.5095 13.7864 13.2125 14.1286 12.6185C14.4708 12.0245 14.4889 11.4395 14.1737 10.8545L12.9579 8.64949L16.1999 1.80049H18.001V0.000488281H15.0742L14.2187 1.80049Z" fill="#30299A"/>
</svg>
